<!-- Generator: Adobe Illustrator 18.1.0, SVG Export Plug-In  -->
<svg version="1.1"
	 xmlns="http://www.w3.org/2000/svg" xmlns:xlink="http://www.w3.org/1999/xlink" xmlns:a="http://ns.adobe.com/AdobeSVGViewerExtensions/3.0/"
	 x="0px" y="0px" width="214.1px" height="192.8px" viewBox="0 0 214.1 192.8" enable-background="new 0 0 214.1 192.8"
	 xml:space="preserve">
<defs>
</defs>
<path fill="#231F20" stroke="#231F20" stroke-miterlimit="10" d="M203.6,154.6L132.3,111c10.8-11.7,17.3-26.7,17.3-43.1
	c0-37.2-33.4-67.4-74.5-67.4S0.5,30.7,0.5,67.9c0,37.2,33.4,67.4,74.5,67.4c16.6,0,32-4.9,44.4-13.2l53.2,62.2
	c1.4,1.7,3.2,3.2,5.3,4.5c10.5,6.4,24.7,3.9,31.8-5.5C216.7,173.8,214,161,203.6,154.6z M74.7,124.7c-34.5,0-62.5-25.3-62.5-56.6
	c0-31.2,28-56.6,62.5-56.6s62.5,25.3,62.5,56.6C137.1,99.4,109.2,124.7,74.7,124.7z"/>
</svg>
